Input #0, mov,mp4,m4a,3gp,3g2,mj2, from 's.mp4':
  Metadata:
    major_brand     : isom
    minor_version   : 1
    compatible_brands: isomavc1
    creation_time   : 2015-05-21 07:41:03
  Duration: 00:00:15.05, start: 0.000000, bitrate: 302 kb/s
    Stream #0:0(und): Video: h264 (Constrained Baseline) (avc1 / 0x31637661), yuv420p, 512x288 [SAR 1:1 DAR 16:9], 264 kb/s, 15 fps, 15 tbr, 15k tbn,
30 tbc (default)
    Metadata:
      creation_time   : 2015-05-21 07:41:03
      handler_name    : GPAC ISO Video Handler
    Stream #0:1(und): Audio: aac (LC) (mp4a / 0x6134706D), 44100 Hz, stereo, fltp, 35 kb/s (default)
    Metadata:
      creation_time   : 2015-05-21 07:41:03
      handler_name    : GPAC ISO Audio Handler
